<?xml version="1.0" standalone="no"?>
<!DOCTYPE svg PUBLIC "-//W3C//DTD SVG 20010904//EN"
 "http://www.w3.org/TR/2001/REC-SVG-20010904/DTD/svg10.dtd">
<svg version="1.0" xmlns="http://www.w3.org/2000/svg"
 width="512.000000pt" height="512.000000pt" viewBox="0 0 512.000000 512.000000"
 preserveAspectRatio="xMidYMid meet">
<metadata>
Created by potrace 1.11, written by Peter Selinger 2001-2013
</metadata>
<g transform="translate(0.000000,512.000000) scale(0.100000,-0.100000)"
fill="#000000" stroke="none">
<path d="M2430 4779 c-406 -44 -750 -216 -998 -499 -204 -233 -375 -578 -462
-933 -129 -526 -115 -1199 36 -1679 233 -740 770 -1206 1473 -1277 347 -36
655 22 986 184 210 103 397 232 593 410 l62 57 0 794 0 794 -740 0 -740 0 0
-250 0 -250 515 0 515 0 0 -399 0 -399 -62 -57 c-194 -176 -521 -332 -777
-370 -548 -83 -1048 184 -1285 686 -81 171 -137 380 -168 629 -17 137 -17 622
0 750 35 262 88 451 182 647 192 401 470 619 863 677 431 64 818 -82 1026
-387 63 -93 145 -301 191 -484 6 -26 15 -41 23 -38 6 2 80 25 162 50 83 25
171 53 196 61 l46 15 -23 98 c-55 232 -143 454 -237 596 -196 298 -505 497
-867 560 -113 19 -391 27 -510 14z"/>
</g>
</svg>
