<?xml version="1.0" standalone="no"?>
<!DOCTYPE svg PUBLIC "-//W3C//DTD SVG 20010904//EN"
 "http://www.w3.org/TR/2001/REC-SVG-20010904/DTD/svg10.dtd">
<svg version="1.0" xmlns="http://www.w3.org/2000/svg"
 width="300.000000pt" height="300.000000pt" viewBox="0 0 300.000000 300.000000"
 preserveAspectRatio="xMidYMid meet">
<metadata>
Created by potrace 1.11, written by Peter Selinger 2001-2013
</metadata>
<g transform="translate(0.000000,300.000000) scale(0.100000,-0.100000)"
fill="#000000" stroke="none">
<path d="M0 1500 l0 -1500 1500 0 1500 0 0 1500 0 1500 -1500 0 -1500 0 0
-1500z m1765 1240 c323 -61 580 -243 712 -505 25 -49 68 -185 77 -242 l6 -43
-249 0 -248 0 -7 30 c-11 56 -60 143 -113 201 -62 67 -159 121 -259 145 -90
22 -250 22 -331 1 -230 -60 -401 -248 -463 -510 -29 -122 -43 -296 -35 -424
15 -260 79 -429 205 -546 81 -75 198 -140 291 -162 85 -20 254 -19 333 1 167
43 296 147 375 302 20 40 61 165 61 188 0 12 -46 14 -275 14 l-275 0 0 200 0
200 498 -2 497 -3 0 -640 0 -640 -165 0 -165 0 -24 140 c-13 77 -25 141 -26
143 -1 2 -42 -37 -91 -85 -138 -138 -239 -196 -419 -240 -88 -21 -370 -24
-460 -5 -414 90 -720 389 -825 807 -40 156 -54 300 -47 480 14 356 103 610
294 836 170 202 409 330 688 368 87 12 359 7 440 -9z"/>
</g>
</svg>
